<svg width="52" height="52" viewBox="0 0 52 52" fill="none" xmlns="http://www.w3.org/2000/svg">
<g filter="url(#filter0_d_491_35370)">
<path fill-rule="evenodd" clip-rule="evenodd" d="M22.6667 20C23.2579 20.0001 23.8324 20.1965 24.2999 20.5586C24.7673 20.9206 25.1013 21.4276 25.2493 22H30.6667V23.3333H25.2493C25.0855 23.9603 24.6991 24.5063 24.1622 24.8692C23.6253 25.2321 22.9747 25.3873 22.3319 25.3056C21.689 25.224 21.0978 24.9111 20.6687 24.4255C20.2396 23.9399 20.0019 23.3147 20 22.6667C20 21.9594 20.281 21.2811 20.781 20.781C21.2811 20.281 21.9594 20 22.6667 20ZM22.6667 24C23.0203 24 23.3594 23.8595 23.6095 23.6095C23.8595 23.3594 24 23.0203 24 22.6667C24 22.313 23.8595 21.9739 23.6095 21.7239C23.3594 21.4738 23.0203 21.3333 22.6667 21.3333C22.313 21.3333 21.9739 21.4738 21.7239 21.7239C21.4738 21.9739 21.3333 22.313 21.3333 22.6667C21.3333 23.0203 21.4738 23.3594 21.7239 23.6095C21.9739 23.8595 22.313 24 22.6667 24ZM29.3333 31.3333C28.7421 31.3333 28.1676 31.1368 27.7001 30.7748C27.2327 30.4128 26.8987 29.9057 26.7507 29.3333H21.3333V28H26.7507C26.9145 27.373 27.3009 26.8271 27.8378 26.4641C28.3747 26.1012 29.0253 25.9461 29.6681 26.0277C30.311 26.1094 30.9022 26.4222 31.3313 26.9078C31.7604 27.3934 31.9981 28.0186 32 28.6667C32 29.3739 31.719 30.0522 31.219 30.5523C30.7189 31.0524 30.0406 31.3333 29.3333 31.3333ZM29.3333 30C29.687 30 30.0261 29.8595 30.2761 29.6095C30.5262 29.3594 30.6667 29.0203 30.6667 28.6667C30.6667 28.313 30.5262 27.9739 30.2761 27.7239C30.0261 27.4738 29.687 27.3333 29.3333 27.3333C28.9797 27.3333 28.6406 27.4738 28.3905 27.7239C28.1405 27.9739 28 28.313 28 28.6667C28 29.0203 28.1405 29.3594 28.3905 29.6095C28.6406 29.8595 28.9797 30 29.3333 30Z" fill="#CF0A50"/>
</g>
<defs>
<filter id="filter0_d_491_35370" x="-2" y="-2" width="56" height="56" filterUnits="userSpaceOnUse" color-interpolation-filters="sRGB">
<feFlood flood-opacity="0" result="BackgroundImageFix"/>
<feColorMatrix in="SourceAlpha" type="matrix" values="0 0 0 0 0 0 0 0 0 0 0 0 0 0 0 0 0 0 127 0" result="hardAlpha"/>
<feOffset/>
<feGaussianBlur stdDeviation="10"/>
<feComposite in2="hardAlpha" operator="out"/>
<feColorMatrix type="matrix" values="0 0 0 0 0.811765 0 0 0 0 0.0392157 0 0 0 0 0.313726 0 0 0 0.3 0"/>
<feBlend mode="normal" in2="BackgroundImageFix" result="effect1_dropShadow_491_35370"/>
<feBlend mode="normal" in="SourceGraphic" in2="effect1_dropShadow_491_35370" result="shape"/>
</filter>
</defs>
</svg>
