<svg width="16" height="16" viewBox="0 0 16 16" fill="none" xmlns="http://www.w3.org/2000/svg">
<path fill-rule="evenodd" clip-rule="evenodd" d="M15.9999 7.88958C12.0627 9.17286 9.29681 11.7673 8.10845 15.8562C6.80763 11.8016 3.97111 9.28463 7.45826e-05 8.11042C3.93732 6.82807 6.70308 4.23259 7.89163 0.143274C9.1923 4.19822 12.0288 6.71625 16.0001 7.88958L15.9999 7.88958Z" fill="#DD1059"/>
<path fill-rule="evenodd" clip-rule="evenodd" d="M11.2486 7.95486C9.64971 8.47598 8.52651 9.52956 8.04393 11.19C7.51568 9.54348 6.3638 8.52137 4.7512 8.04454C6.35008 7.52379 7.47323 6.46979 7.95588 4.80916C8.48407 6.45583 9.63593 7.47838 11.2486 7.95486L11.2486 7.95486Z" fill="#A21245"/>
<path fill-rule="evenodd" clip-rule="evenodd" d="M11.2486 7.95486C9.64971 8.47598 8.52651 9.52956 8.04393 11.19C7.51568 9.54348 6.3638 8.52137 4.7512 8.04454C6.35008 7.52379 7.47323 6.46979 7.95588 4.80916C8.48407 6.45583 9.63593 7.47838 11.2486 7.95486L11.2486 7.95486Z" fill="#A21245"/>
<path fill-rule="evenodd" clip-rule="evenodd" d="M11.2486 7.95486C9.64971 8.47598 8.52651 9.52956 8.04393 11.19C7.51568 9.54348 6.3638 8.52137 4.7512 8.04454C6.35008 7.52379 7.47323 6.46979 7.95588 4.80916C8.48407 6.45583 9.63593 7.47838 11.2486 7.95486L11.2486 7.95486Z" fill="#A21245"/>
</svg>
