<svg width="14" height="14" viewBox="0 0 14 14" fill="none" xmlns="http://www.w3.org/2000/svg">
<path d="M8.16647 10.6021V6.99997C8.16647 6.83469 8.22247 6.69605 8.33447 6.58405C8.44608 6.47244 8.58453 6.41663 8.7498 6.41663C8.91508 6.41663 9.05372 6.47244 9.16572 6.58405C9.27733 6.69605 9.33314 6.83469 9.33314 6.99997V10.6021L10.4269 9.5083C10.5338 9.40136 10.6674 9.34536 10.8276 9.3403C10.9882 9.33563 11.1269 9.39163 11.2436 9.5083C11.3602 9.61524 11.4211 9.74883 11.4261 9.90905C11.4308 10.0697 11.3748 10.2083 11.2581 10.325L9.15814 12.425C9.0998 12.4833 9.03661 12.5245 8.96855 12.5486C8.9005 12.5731 8.82758 12.5854 8.7498 12.5854C8.67203 12.5854 8.59911 12.5731 8.53105 12.5486C8.463 12.5245 8.3998 12.4833 8.34147 12.425L6.24147 10.325C6.13453 10.218 6.08105 10.0844 6.08105 9.92422C6.08105 9.76361 6.13939 9.62497 6.25605 9.5083C6.37272 9.40136 6.50883 9.34536 6.66439 9.3403C6.81994 9.33563 6.95605 9.39163 7.07272 9.5083L8.16647 10.6021ZM4.66647 3.39788L3.57272 4.49163C3.44633 4.61802 3.30536 4.67636 3.1498 4.66663C2.99425 4.65691 2.863 4.59858 2.75605 4.49163C2.63939 4.37497 2.58105 4.23633 2.58105 4.07572C2.58105 3.9155 2.63453 3.78191 2.74147 3.67497L4.84147 1.57497C4.8998 1.51663 4.963 1.47522 5.03105 1.45072C5.09911 1.42661 5.17203 1.41455 5.2498 1.41455C5.32758 1.41455 5.4005 1.42661 5.46855 1.45072C5.53661 1.47522 5.5998 1.51663 5.65814 1.57497L7.75814 3.67497C7.86508 3.78191 7.91855 3.91802 7.91855 4.0833C7.91855 4.24858 7.86508 4.38469 7.75814 4.49163C7.64147 4.6083 7.50303 4.66663 7.3428 4.66663C7.18219 4.66663 7.04355 4.6083 6.92689 4.49163L5.83314 3.39788V6.99997C5.83314 7.16525 5.77733 7.30369 5.66572 7.4153C5.55372 7.5273 5.41508 7.5833 5.2498 7.5833C5.08453 7.5833 4.94608 7.5273 4.83447 7.4153C4.72247 7.30369 4.66647 7.16525 4.66647 6.99997V3.39788Z" fill="#BD0043"/>
</svg>
