<svg width="40" height="40" viewBox="0 0 40 40" fill="none" xmlns="http://www.w3.org/2000/svg">
<g clip-path="url(#clip0_1_363)">
<path d="M40 20C40 17.5536 39.5599 15.2101 38.756 13.0436L20 12.174L1.24398 13.0435C0.440078 15.2101 0 17.5536 0 20C0 22.4464 0.440078 24.79 1.24398 26.9565L20 27.8261L38.756 26.9566C39.5599 24.79 40 22.4464 40 20Z" fill="#F0F0F0"/>
<path d="M19.9999 40.0001C28.5992 40.0001 35.9301 34.5726 38.7559 26.9565H1.2439C4.06976 34.5726 11.4006 40.0001 19.9999 40.0001Z" fill="#0052B4"/>
<path d="M1.2439 13.0435H38.756C35.9301 5.4275 28.5992 0 19.9999 0C11.4006 0 4.06976 5.4275 1.2439 13.0435Z" fill="#D80027"/>
<path d="M25.2173 13.9132H21.739L22.3188 9.56531L24.6375 7.82617L26.9564 9.56531V13.0436L25.2173 13.9132Z" fill="#338AF3"/>
<path d="M14.7824 13.9132H18.2607L17.6809 9.56531L15.3621 7.82617L13.0433 9.56531V13.0436L14.7824 13.9132Z" fill="#338AF3"/>
<path d="M22.3188 13.9131H17.681V9.56519L19.9999 7.82605L22.3188 9.56519V13.9131Z" fill="#0052B4"/>
<path d="M13.0435 13.0436V22.6087C13.0435 24.8863 14.1436 26.9118 15.8405 28.1815L17.0579 27.8769L18.5942 29.4224C19.0485 29.516 19.5185 29.5653 20 29.5653C20.4789 29.5653 20.9467 29.5166 21.3985 29.424L23.1522 27.9638L24.1594 28.1787C25.8556 26.909 26.9565 24.8857 26.9565 22.6087V13.0436H13.0435Z" fill="#F0F0F0"/>
<path d="M13.0433 13.0436H15.8259V15.8262H13.0433V13.0436Z" fill="#D80027"/>
<path d="M18.6084 13.0436H21.391V15.8262H18.6084V13.0436Z" fill="#D80027"/>
<path d="M24.1737 13.0436H26.9563V15.8262H24.1737V13.0436Z" fill="#D80027"/>
<path d="M15.8259 15.8262H18.6085V18.6087H15.8259V15.8262Z" fill="#D80027"/>
<path d="M21.3912 15.8262H24.1738V18.6087H21.3912V15.8262Z" fill="#D80027"/>
<path d="M13.0433 18.6079H15.8259V21.3905H13.0433V18.6079Z" fill="#D80027"/>
<path d="M15.8259 21.3905H18.6085V24.1731H15.8259V21.3905Z" fill="#D80027"/>
<path d="M18.6084 18.6079H21.391V21.3905H18.6084V18.6079Z" fill="#D80027"/>
<path d="M24.1737 18.6079H26.9563V21.3905H24.1737V18.6079Z" fill="#D80027"/>
<path d="M21.3912 21.3905H24.1738V24.1731H21.3912V21.3905Z" fill="#D80027"/>
<path d="M18.6084 24.1731H21.391V26.9557H18.6084V24.1731Z" fill="#D80027"/>
<path d="M15.826 24.1733H13.2229C13.4617 25.2077 13.931 26.1542 14.5746 26.9559H15.826V24.1733Z" fill="#D80027"/>
<path d="M24.1737 26.956H25.425C26.0687 26.1543 26.5379 25.2078 26.7767 24.1735H24.1737V26.956Z" fill="#D80027"/>
<path d="M15.8259 26.9561V28.1702C16.6352 28.7792 17.581 29.2158 18.6085 29.4254V26.9561H15.8259Z" fill="#D80027"/>
<path d="M21.3912 26.9561V29.4254C22.4188 29.216 23.3645 28.7792 24.1738 28.1702V26.9561H21.3912Z" fill="#D80027"/>
</g>
<defs>
<clipPath id="clip0_1_363">
<rect width="40" height="40" fill="white"/>
</clipPath>
</defs>
</svg>
